<?xml version="1.0" encoding="utf-8"?>
<!-- Generator: Adobe Illustrator 18.0.0, SVG Export Plug-In . SVG Version: 6.00 Build 0)  -->
<!DOCTYPE svg PUBLIC "-//W3C//DTD SVG 1.1 Tiny//EN" "http://www.w3.org/Graphics/SVG/1.1/DTD/svg11-tiny.dtd">
<svg version="1.1" baseProfile="tiny" id="Layer_1" xmlns="http://www.w3.org/2000/svg" xmlns:xlink="http://www.w3.org/1999/xlink"
	 x="0px" y="0px" viewBox="0 0 539.9 539.2" xml:space="preserve">
<path id="Blue_backdrop" display="none" fill="#274E8A" d="M257.2-4.7c7-11.9,18.4-11.9,25.4,0l0.3,0.5c7,11.9,20.3,13.2,29.5,3
	l0.4-0.5c9.2-10.2,20.4-7.9,24.9,5.1L338,4c4.5,13,17.2,17,28.3,8.9l0.5-0.4c11.1-8.1,21.6-3.6,23.4,10l0.1,0.6
	c1.7,13.7,13.4,20.1,25.9,14.4l0.6-0.3c12.5-5.7,21.9,0.8,20.9,14.5l0,0.6c-1,13.7,9.1,22.4,22.5,19.3l0.6-0.1
	c13.4-3.1,21.3,5.2,17.5,18.4l-0.2,0.6c-3.8,13.2,4.4,23.8,18.1,23.4l0.6,0c13.8-0.3,19.8,9.4,13.4,21.6l-0.3,0.6
	c-6.4,12.2-0.5,24.2,13.1,26.6l0.6,0.1c13.6,2.4,17.5,13.2,8.8,23.8l-0.4,0.5c-8.7,10.7-5.4,23.6,7.4,28.7l0.6,0.2
	c12.8,5.1,14.5,16.4,3.8,25.1l-0.5,0.4c-10.7,8.7-10,22,1.5,29.6l0.5,0.3c11.5,7.6,10.9,19-1.3,25.4l-0.5,0.3
	c-12.2,6.4-14.2,19.6-4.5,29.3l0.4,0.4c9.7,9.7,6.9,20.8-6.4,24.6l-0.6,0.2c-13.2,3.8-17.9,16.3-10.3,27.8l0.3,0.5
	c7.6,11.5,2.5,21.8-11.2,22.8l-0.6,0c-13.7,1-20.8,12.4-15.7,25.2l0.2,0.6c5.1,12.8-1.9,21.8-15.6,20.1l-0.6-0.1
	c-13.7-1.7-22.9,7.9-20.4,21.5l0.1,0.6c2.4,13.6-6.2,21-19.3,16.5l-0.6-0.2c-13-4.5-24,3.2-24.3,16.9l0,0.6
	c-0.4,13.8-10.4,19.3-22.2,12.3l-0.5-0.3c-11.9-7-24.1-1.7-27.2,11.7l-0.1,0.6c-3.1,13.4-14,16.8-24.2,7.6l-0.5-0.4
	c-10.2-9.2-23.3-6.5-29,6l-0.3,0.6c-5.8,12.5-17.1,13.7-25.3,2.6l-0.4-0.5c-8.2-11.1-21.5-11.1-29.6,0l-0.4,0.5
	c-8.2,11.1-19.5,9.9-25.3-2.6l-0.3-0.6c-5.8-12.5-18.8-15.2-29-6l-0.5,0.4c-10.2,9.2-21.1,5.8-24.2-7.6l-0.1-0.6
	c-3.1-13.4-15.4-18.7-27.2-11.7l-0.5,0.3c-11.9,7-21.9,1.4-22.2-12.3l0-0.6c-0.4-13.8-11.3-21.4-24.3-16.9l-0.6,0.2
	c-13,4.5-21.7-3-19.3-16.5l0.1-0.6c2.4-13.6-6.8-23.2-20.4-21.5l-0.6,0.1c-13.7,1.7-20.7-7.3-15.6-20.1l0.2-0.6
	c5.1-12.8-2-24.1-15.7-25.2l-0.6,0c-13.7-1-18.8-11.3-11.2-22.8l0.3-0.5c7.6-11.5,2.9-24-10.3-27.8l-0.6-0.2
	c-13.2-3.8-16.1-14.9-6.4-24.6l0.4-0.4c9.7-9.7,7.7-22.9-4.5-29.3l-0.5-0.3c-12.2-6.4-12.8-17.8-1.3-25.4l0.5-0.3
	c11.5-7.6,12.2-20.9,1.5-29.6l-0.5-0.4c-10.7-8.7-8.9-20,3.8-25.1l0.6-0.2c12.8-5.1,16.1-18,7.4-28.7l-0.4-0.5
	c-8.7-10.7-4.7-21.4,8.8-23.8l0.6-0.1c13.6-2.4,19.4-14.4,13.1-26.6l-0.3-0.6c-6.4-12.2-0.3-21.9,13.4-21.6l0.6,0
	c13.8,0.3,21.9-10.2,18.1-23.4L61.8,90C58,76.8,65.9,68.5,79.3,71.6l0.6,0.1c13.4,3.1,23.5-5.6,22.5-19.3l0-0.6
	c-1-13.7,8.3-20.3,20.9-14.5l0.6,0.3c12.5,5.7,24.2-0.7,25.9-14.4l0.1-0.6c1.7-13.7,12.3-18.2,23.4-10l0.5,0.4
	c11.1,8.1,23.8,4.2,28.3-8.9l0.2-0.6c4.5-13,15.7-15.3,24.9-5.1l0.4,0.5c9.2,10.2,22.5,8.9,29.5-3L257.2-4.7z"/>
<path id="Serpentine_border" fill="none" stroke="#FFFFFF" stroke-width="4" stroke-miterlimit="10" d="M257.8,10.5
	c6.7-11.3,17.6-11.3,24.2,0l0.1,0.2c6.7,11.3,19.3,12.6,28.1,2.9l0.1-0.1c8.8-9.7,19.5-7.5,23.7,4.9l0.1,0.2
	c4.2,12.4,16.4,16.2,27,8.5l0.2-0.1c10.6-7.8,20.6-3.5,22.3,9.5l0,0.2c1.7,13,12.8,19.2,24.7,13.7l0.2-0.1
	c11.9-5.5,20.9,0.7,19.9,13.8l0,0.2c-1,13.1,8.7,21.4,21.4,18.4l0.2,0c12.8-3,20.3,4.9,16.7,17.5l-0.1,0.2
	c-3.6,12.6,4.2,22.7,17.3,22.3l0.2,0c13.1-0.3,18.9,8.9,12.8,20.5l-0.1,0.2c-6.1,11.6-0.5,23,12.4,25.4l0.2,0
	c12.9,2.3,16.7,12.5,8.4,22.7l-0.1,0.2c-8.3,10.2-5.1,22.5,7.1,27.3l0.2,0.1c12.2,4.9,13.8,15.6,3.7,23.9l-0.2,0.1
	c-10.2,8.3-9.5,21,1.4,28.2l0.2,0.1c11,7.2,10.4,18.1-1.2,24.2l-0.2,0.1c-11.6,6.1-13.6,18.6-4.3,27.9l0.1,0.1
	c9.3,9.3,6.5,19.8-6.1,23.4l-0.2,0.1c-12.6,3.6-17,15.5-9.8,26.5l0.1,0.2c7.2,11,2.4,20.7-10.7,21.7l-0.2,0
	c-13.1,1-19.8,11.8-14.9,24l0.1,0.2c4.9,12.2-1.8,20.8-14.8,19.1l-0.2,0c-13-1.7-21.8,7.6-19.5,20.5l0,0.2c2.3,12.9-6,20-18.4,15.8
	l-0.2-0.1c-12.4-4.2-22.9,3-23.2,16.1l0,0.2c-0.3,13.1-9.9,18.4-21.2,11.8l-0.2-0.1c-11.3-6.7-23-1.6-26,11.1l0,0.2
	c-3,12.8-13.4,16-23.1,7.2l-0.1-0.1c-9.7-8.8-22.2-6.2-27.7,5.7l-0.1,0.2c-5.5,11.9-16.3,13-24.1,2.4l-0.1-0.2
	c-7.8-10.6-20.5-10.6-28.2,0l-0.1,0.2c-7.8,10.6-18.6,9.5-24.1-2.4l-0.1-0.2c-5.5-11.9-17.9-14.5-27.7-5.7l-0.1,0.1
	c-9.7,8.8-20.1,5.5-23.1-7.2l0-0.2c-3-12.8-14.6-17.8-26-11.1l-0.2,0.1c-11.3,6.7-20.8,1.4-21.2-11.8l0-0.2
	c-0.3-13.1-10.8-20.4-23.2-16.1l-0.2,0.1c-12.4,4.2-20.7-2.9-18.4-15.8l0-0.2c2.3-12.9-6.4-22.1-19.5-20.5l-0.2,0
	c-13,1.7-19.7-7-14.8-19.1l0.1-0.2c4.9-12.2-1.9-23-14.9-24l-0.2,0c-13.1-1-17.9-10.8-10.7-21.7l0.1-0.2c7.2-11,2.8-22.9-9.8-26.5
	l-0.2-0.1c-12.6-3.6-15.3-14.2-6.1-23.4l0.1-0.1c9.3-9.3,7.4-21.8-4.3-27.9l-0.2-0.1c-11.6-6.1-12.2-17-1.2-24.2l0.2-0.1
	c11-7.2,11.6-19.9,1.4-28.2l-0.2-0.1C1.1,234.6,2.8,223.8,15,219l0.2-0.1c12.2-4.9,15.4-17.2,7.1-27.3l-0.1-0.2
	c-8.3-10.2-4.5-20.4,8.4-22.7l0.2,0c12.9-2.3,18.5-13.7,12.4-25.4l-0.1-0.2c-6.1-11.6-0.3-20.9,12.8-20.5l0.2,0
	c13.1,0.3,20.9-9.7,17.3-22.3l-0.1-0.2C69.7,87.4,77.2,79.5,90,82.5l0.2,0c12.8,3,22.4-5.3,21.4-18.4l0-0.2
	c-1-13.1,7.9-19.3,19.9-13.8l0.2,0.1c11.9,5.5,23-0.7,24.7-13.7l0-0.2c1.7-13,11.7-17.3,22.3-9.5l0.2,0.1c10.6,7.8,22.7,4,27-8.5
	l0.1-0.2c4.2-12.4,14.9-14.6,23.7-4.9l0.1,0.1c8.8,9.7,21.4,8.4,28.1-2.9L257.8,10.5z"/>
<path id="Inner_circle_1_" fill="none" stroke="#FFFFFF" stroke-width="4.8699" stroke-miterlimit="10" d="M478.2,268.6
	c0,115.1-93.3,208.5-208.5,208.5c-115.1,0-208.5-93.3-208.5-208.5c0-115.1,93.3-208.5,208.5-208.5
	C384.8,60.1,478.2,153.5,478.2,268.6z"/>
<path id="Outer_circle" display="none" fill="none" stroke="#FFFFFF" stroke-width="2.0656" stroke-miterlimit="10" d="M492.4,268.6
	c0,122.9-99.6,222.4-222.4,222.4c-122.9,0-222.4-99.6-222.4-222.4c0-122.9,99.6-222.4,222.4-222.4
	C392.8,46.2,492.4,145.8,492.4,268.6z"/>
<g id="Three_circles_right_lower">
	<path fill="none" stroke="#FFFFFF" stroke-width="2.0656" stroke-miterlimit="10" d="M437.7,316.5c-5.4,19.3-13.9,37.2-25.1,53.1"
		/>
	<path display="none" fill="none" stroke="#FFFFFF" stroke-width="2.0656" stroke-miterlimit="10" d="M406.9,365.7
		c10.4-14.9,18.4-31.5,23.6-49.3"/>
	<path fill="none" stroke="#FFFFFF" stroke-width="2.0656" stroke-miterlimit="10" d="M423.4,316.5c-5,16.4-12.5,31.7-22.1,45.4"/>
</g>
<g id="Three_circles_right_upper">
	<path fill="none" stroke="#FFFFFF" stroke-width="2.0656" stroke-miterlimit="10" d="M327.6,104.3c53.3,18.9,94.7,62.9,110.1,117.7
		"/>
	<path display="none" fill="none" stroke="#FFFFFF" stroke-width="2.0656" stroke-miterlimit="10" d="M430.3,222
		c-15-51-53.4-91.9-102.8-110.3"/>
	<path fill="none" stroke="#FFFFFF" stroke-width="2.0656" stroke-miterlimit="10" d="M327.6,119c45.7,17.8,81.3,55.8,95.8,103"/>
</g>
<g id="Three_circles_left_lower">
	<path fill="none" stroke="#FFFFFF" stroke-width="2.0656" stroke-miterlimit="10" d="M100.1,316.4c5.4,19.5,14.1,37.6,25.4,53.7"/>
	<path display="none" fill="none" stroke="#FFFFFF" stroke-width="2.0656" stroke-miterlimit="10" d="M107.4,316.5
		c5.2,17.9,13.3,34.6,23.7,49.5"/>
	<path fill="none" stroke="#FFFFFF" stroke-width="2.0656" stroke-miterlimit="10" d="M114.4,316.5c5,16.4,12.5,31.7,22.1,45.4"/>
</g>
<g id="Three_circles_left_upper">
	<path fill="none" stroke="#FFFFFF" stroke-width="2.0656" stroke-miterlimit="10" d="M211.7,103.8c-54,18.6-96.1,62.9-111.6,118.3"
		/>
	<path display="none" fill="none" stroke="#FFFFFF" stroke-width="2.0656" stroke-miterlimit="10" d="M211.7,111.2
		c-50.1,18.1-89.2,59.4-104.3,110.9"/>
	<path fill="none" stroke="#FFFFFF" stroke-width="2.0656" stroke-miterlimit="10" d="M211.7,118.4c-46.4,17.6-82.6,55.9-97.2,103.7
		"/>
</g>
<g id="Charleston_x2C__SC">
	<path fill="#FFFFFF" d="M137.3,392.2c-4.5-4.8-2.6-9,1.6-13l5.7-5.3c4.3-4,8.6-5.5,13-0.7c4.2,4.5,2.9,8.4-1.1,12.1l-3-3.2
		c2.4-2.3,4.2-4.1,1.7-6.7c-2.5-2.7-4.6-1.2-7,1l-7.1,6.6c-2.2,2-3.8,4.5-1.5,6.9c2.3,2.4,4.7,0.8,6.8-1.2l0.7-0.7l3,3.2l-0.7,0.7
		C145.5,395.7,141.5,396.7,137.3,392.2z"/>
	<path fill="#FFFFFF" d="M161.7,397.5l-7.9,9.9l-3.4-2.7l17-21.3l3.4,2.7l-7.3,9.1l6,4.8l7.3-9.1l3.4,2.7l-17,21.3l-3.4-2.7l7.9-9.9
		L161.7,397.5z"/>
	<path fill="#FFFFFF" d="M174.7,422.4l-3.8-2.2l19.4-20.3l3.8,2.2L186,429l-3.8-2.2l2-6.7l-4.7-2.7L174.7,422.4z M189.2,406.1
		l-7.8,9l3.8,2.2L189.2,406.1z"/>
	<path fill="#FFFFFF" d="M210.1,424.7l-0.6,14.5l-4-1.6l0.7-13.4l-3-1.2l-4.8,11.7l-4-1.6l10.3-25.3l5.1,2.1
		c5.8,2.3,8.4,5.4,6.3,10.5C214.8,423.3,212.8,424.9,210.1,424.7z M208.6,412.5l-1-0.4l-3.3,8.1l1,0.4c3.3,1.3,5.5,0.9,6.7-2
		C213.2,415.7,211.9,413.8,208.6,412.5z"/>
	<path fill="#FFFFFF" d="M225.4,415.5l4.2,1.1l-6.2,23.6l7.4,1.9l-0.7,2.8l-11.6-3L225.4,415.5z"/>
	<path fill="#FFFFFF" d="M244.6,434.6l-1.3,9.6l7.6,1.1l-0.4,2.9l-11.9-1.7l3.8-27l11.9,1.7l-0.4,2.9l-7.6-1.1l-1.2,8.7l5.4,0.8
		l-0.4,2.9L244.6,434.6z"/>
	<path fill="#FFFFFF" d="M266.9,424.6c-2.1,0-3.3,1.1-3.3,2.9c0,1.7,1,3,2.1,3.9l5.4,3.9c2.2,1.6,4.3,4.1,4.3,7.6
		c0,4.1-3.1,6.4-7.7,6.3c-5.7-0.1-8.4-3.4-8.6-8.1l4.4-0.9c0.1,2.8,1,5.9,4.3,5.9c2.2,0,3.3-0.9,3.3-2.9c0-2.5-1.7-3.7-3.2-4.9
		l-5.4-3.9c-1.9-1.3-3.3-3.5-3.2-6.4c0-4.1,3.1-6.6,7.7-6.5c5.4,0,8.3,2.7,8.7,7.2l-4.4,0.9C271.1,426.9,270,424.6,266.9,424.6z"/>
	<path fill="#FFFFFF" d="M295.4,423.1l-5.4,0.7l2.9,23.6l-4.3,0.5l-2.9-23.6l-5.4,0.7l-0.4-3.4l15.1-1.8L295.4,423.1z"/>
	<path fill="#FFFFFF" d="M317,423.2l2.5,9.6c1.4,5.3,0.1,9.3-5.9,10.8c-6.1,1.6-9-1.3-10.4-6.7l-2.5-9.6c-1.4-5.4-0.1-9.1,5.9-10.7
		C312.7,415.1,315.7,417.9,317,423.2z M304.7,425.3l2.9,11.5c0.7,2.8,2,4.5,5.1,3.7c3.2-0.8,3.4-2.9,2.7-5.7l-2.9-11.5
		c-0.7-2.8-1.9-4.4-5.1-3.6C304.3,420.6,304,422.5,304.7,425.3z"/>
	<path fill="#FFFFFF" d="M328.9,419.3L336,436l-4,1.7l-10.7-25.1l3-1.3l13.6,12.5l-6.6-15.5l4-1.7l10.7,25.1l-2.9,1.2L328.9,419.3z"
		/>
	<path fill="#FFFFFF" d="M356.8,421.5c0.7,1.3,1.3,2.4,1.8,3.2c1.1,2.2,1.6,3.8-0.8,5.2l-1.9-1.2c1.4-0.8,1.6-1.6,0.9-2.8l-1.9,1.1
		l-1.9-3.4L356.8,421.5z"/>
	<path fill="#FFFFFF" d="M366.8,389.8c-1.6,1.3-1.8,2.9-0.6,4.4c1.1,1.3,2.7,1.7,4.1,1.6l6.7-0.4c2.8-0.2,5.9,0.4,8.2,3.1
		c2.6,3.1,1.7,6.9-1.9,9.8c-4.4,3.6-8.6,2.8-11.9-0.7l2.8-3.5c1.9,2.1,4.5,3.9,7.1,1.8c1.7-1.4,1.9-2.8,0.7-4.3
		c-1.6-1.9-3.7-1.8-5.6-1.7l-6.7,0.4c-2.3,0.2-4.7-0.6-6.6-2.8c-2.6-3.1-1.8-7,1.8-9.9c4.2-3.4,8.1-3.2,11.2,0l-2.8,3.5
		C371.4,388.9,369.2,387.8,366.8,389.8z"/>
	<path fill="#FFFFFF" d="M401.8,390.4c-4.4,4.8-8.7,3.4-13.1-0.6l-5.7-5.3c-4.3-4-6.2-8.1-1.7-12.9c4.2-4.5,8.1-3.6,12.2,0.1
		l-2.9,3.2c-2.4-2.2-4.4-3.9-6.9-1.2c-2.5,2.7-0.9,4.7,1.6,6.9l7.2,6.6c2.2,2,4.8,3.4,7,1c2.3-2.5,0.4-4.7-1.8-6.7l-0.7-0.7l2.9-3.2
		l0.7,0.7C404.6,382,405.9,385.9,401.8,390.4z"/>
</g>
<g id="FireStack">
	<polygon fill="#FFFFFF" points="319.3,201.9 319.3,199.6 314.6,199.6 314.6,197.9 310.5,197.9 310.5,194.9 305.8,194.9 
		305.8,193.1 301.1,193.1 296.4,193.1 296.4,191.4 291.9,191.4 291.9,188.4 287.1,188.4 287.1,186.7 282.4,186.7 282.4,184.6 
		277.7,184.6 277.7,182.9 273,182.9 268.3,182.9 268.3,180.5 263.6,180.5 263.6,178.1 258.9,178.1 258.9,175.8 254.2,175.8 
		254.2,174 249.5,174 249.5,171.7 244.7,171.7 244.7,168.7 240,168.7 240,166.4 235.3,166.4 230.6,166.4 230.6,164 225.9,164 
		221.2,164 221.2,166.4 216.5,166.4 216.5,171.1 216.5,175.8 221.2,175.8 221.2,178.1 225.9,178.1 225.9,182.9 230.6,182.9 
		230.6,185.2 235.3,185.2 240,185.2 240,187.6 244.7,187.6 244.7,190.5 249.5,190.5 249.5,192.9 254.2,192.9 254.2,194.6 
		258.9,194.6 258.9,197 263.6,197 263.6,199.4 268.3,199.4 268.3,201.7 273,201.7 273,206.4 277.7,206.4 277.7,208.1 282.4,208.1 
		282.4,210.3 287.1,210.3 287.1,212 291.7,212 291.7,215 296.4,215 296.4,216.7 301.1,216.7 305.8,216.7 305.8,218.4 310.5,218.4 
		310.5,216.7 314.6,216.7 314.6,218.4 319.3,218.4 319.3,216.1 324,216.1 324,211.4 324,206.6 324,201.9 	"/>
	<polygon fill="#FFFFFF" points="302.6,130.5 302.6,126.3 302.6,126.3 302.6,121.6 297.9,121.6 297.9,117 297.9,117 297.9,112.5 
		297.9,112.3 297.9,108.1 297.9,107.8 297.9,103.4 297.9,103.4 297.9,101.4 302.6,101.4 302.6,96.6 297.9,96.6 297.9,99 293.2,99 
		293.2,103.7 293.2,103.7 293.2,106.4 288.5,106.4 288.5,109.4 283.8,109.4 283.8,114 283.8,114.2 283.8,118.7 283.8,118.7 
		279,118.7 279,123.4 279,123.4 279,128.1 279,128.1 274.3,128.1 274.3,132.8 279,132.8 279,137.5 279,142.2 279,142.2 279,142.7 
		279,146.9 279,146.9 279,151.6 279,156.1 274.5,156.1 274.5,161 274.4,161 274.4,165.7 272.3,165.7 272.3,170.4 277,170.4 
		277,165.7 279.2,165.7 283.9,165.7 283.9,161 288.5,161 288.5,158 293.2,158 293.2,154.5 297.9,154.5 297.9,149.8 302.6,149.8 
		302.6,145.1 302.6,141.9 302.6,140.4 302.6,139.8 307.3,139.8 307.3,130.5 	"/>
	<polygon fill="#FFFFFF" points="262.6,137.2 262.6,135.5 262.6,130.7 262.6,126 257.9,126 257.9,121.7 253.2,121.7 248.5,121.7 
		248.5,117.2 248.5,112.5 248.5,107.8 248.5,103.1 246.2,103.1 246.2,98.4 241.5,98.4 241.5,103.1 243.8,103.1 243.8,107.8 
		243.8,110.8 239.1,110.8 239.1,115.5 239.1,117.8 234.4,117.8 234.4,122.5 234.4,127.2 234.4,130.2 229.7,130.2 229.7,134.9 
		229.7,139.1 229.7,139.7 229.7,144.4 234.4,144.4 234.4,146.1 234.4,150.8 239.1,150.8 239.1,153.2 243.8,153.2 243.8,154.9 
		248.5,154.9 248.5,157.3 253.2,157.3 253.2,159 255.6,159 255.6,163.7 257.9,163.7 257.9,168.4 261.6,168.4 262.6,168.4 
		264.3,168.4 264.3,163.7 265,163.7 265,159 262.6,159 262.6,156 267.4,156 267.4,151.3 267.4,146.6 267.4,142.5 267.4,141.9 
		267.4,137.2 	"/>
	<polygon fill="#FFFFFF" points="298.5,166 298.5,169.7 293.7,169.7 293.7,172.7 289,172.7 284.3,172.7 284.3,175.8 279.6,175.8 
		279.6,180.5 284.3,180.5 284.3,182.1 289,182.1 293.7,182.1 293.7,183.8 298.5,183.8 298.5,180.2 303.2,180.2 307.9,180.2 
		307.9,177.2 312.6,177.2 312.6,174.6 317.3,174.6 317.3,169.9 317.3,165.2 312.6,165.2 312.6,163 307.9,163 307.9,166 303.2,166 	
		"/>
	<polygon fill="#FFFFFF" points="271.2,101.5 271.2,100.4 271.2,100.4 271.2,95.8 273.6,95.8 273.6,91 268.9,91 268.9,95.8 
		266.5,95.8 266.5,100.5 266.5,100.5 266.5,103.8 261.8,103.8 261.8,108.4 261.8,108.5 257.2,108.5 257.2,109.6 257.2,110.8 
		257.2,115.5 257.2,117 257.2,117.8 261.8,117.8 261.8,121.9 266.5,121.9 266.5,123.3 266.5,123.4 266.5,128.1 271.2,128.1 
		271.2,126.3 271.2,126.3 271.2,110 275.9,110 275.9,106.2 275.9,106 275.9,101.5 	"/>
	<polyline fill="#FFFFFF" points="237.2,191.1 232.5,191.1 232.5,193.4 227.8,193.4 227.8,196.4 223.1,196.4 223.1,198.7 
		218.4,198.7 218.4,200.5 213.7,200.5 213.7,205.2 213.7,209.9 213.7,214.6 218.4,214.6 218.4,217.6 223.1,217.6 223.1,219.9 
		227.8,219.9 227.8,217 232.6,217 232.6,214.6 237.3,214.6 237.3,212.8 242,212.8 242,210.5 246.7,210.5 246.7,207.5 251.4,207.5 
		251.4,205.2 256.1,205.2 256.1,201 256.1,201 256.1,196.3 256.1,196.3 256.1,195.8 251.4,195.8 251.4,194.6 246.7,194.6 
		246.7,192.2 242,192.2 242,189.3 237.3,189.3 	"/>
</g>
<g id="CHS">
	<rect x="229.9" y="345.7" fill="#FFFFFF" width="7.2" height="24.6"/>
	<rect x="237.1" y="337.5" fill="#FFFFFF" width="14.4" height="8.2"/>
	<rect x="237.1" y="370.3" fill="#FFFFFF" width="14.4" height="8.2"/>
	<polygon fill="#FFFFFF" points="265.8,362.1 272.9,362.1 272.9,378.4 280.1,378.4 280.1,337.5 272.9,337.5 272.9,353.9 
		265.8,353.9 265.8,337.5 258.6,337.5 258.6,378.4 265.8,378.4 	"/>
	<rect x="294.5" y="337.5" fill="#FFFFFF" width="14.4" height="8.2"/>
	<rect x="294.5" y="353.9" fill="#FFFFFF" width="7.2" height="8.2"/>
	<rect x="287.3" y="345.7" fill="#FFFFFF" width="7.2" height="8.2"/>
	<rect x="301.7" y="362.1" fill="#FFFFFF" width="7.2" height="8.2"/>
	<rect x="287.3" y="370.3" fill="#FFFFFF" width="14.4" height="8.2"/>
</g>
<g id="CODE_CAMP">
	<path fill="#FFFFFF" d="M124.5,255.3v4.1h-11.3v-4.1c0-2.7-2.1-4.8-4.8-4.8c-2.6,0-4.8,2.1-4.8,4.8v29.2c0,2.6,2.2,4.8,4.8,4.8
		c2.7,0,4.8-2.2,4.8-4.8v-4.2h11.3v4.2c0,8.9-7.3,16.1-16.1,16.1c-8.9,0-16.1-7.2-16.1-16.1v-29.2c0-8.9,7.2-16.1,16.1-16.1
		C117.3,239.3,124.5,246.5,124.5,255.3z"/>
	<path fill="#FFFFFF" d="M133.3,284.6v-29.2c0-8.9,7.2-16.1,16.1-16.1c8.9,0,16.1,7.2,16.1,16.1v29.2c0,8.9-7.3,16.1-16.1,16.1
		C140.4,300.6,133.3,293.5,133.3,284.6z M144.5,255.3v29.2c0,2.6,2.2,4.8,4.8,4.8c2.7,0,4.8-2.2,4.8-4.8v-29.2
		c0-2.7-2.1-4.8-4.8-4.8C146.7,250.5,144.5,252.6,144.5,255.3z"/>
	<path fill="#FFFFFF" d="M206.4,283c0,8.9-7.3,16.1-16.1,16.1h-16.1v-58.5h16.1c8.9,0,16.1,7.2,16.1,16.1V283z M195,283v-2.6
		c0-0.6,0-23.8,0-23.8c0-2.6-2.1-4.8-4.8-4.8c-2.6,0-4.8,0-4.8,0v7.4v5v11.2v6.6v5.8c0,0,2.2,0,4.8,0C193,287.8,195,285.7,195,283z"
		/>
	<path fill="#FFFFFF" d="M215.1,240.6h32.2v11.3h-21v12.4h15.3v11.3h-15.3v12.3h21v11.2h-32.2V240.6z"/>
	<path fill="#FFFFFF" d="M311.4,255.3v4.1h-11.3v-4.1c0-2.7-2.1-4.8-4.8-4.8c-2.6,0-4.8,2.1-4.8,4.8v29.2c0,2.6,2.2,4.8,4.8,4.8
		c2.7,0,4.8-2.2,4.8-4.8v-4.2h11.3v4.2c0,8.9-7.3,16.1-16.2,16.1c-8.9,0-16.1-7.2-16.1-16.1v-29.2c0-8.9,7.2-16.1,16.1-16.1
		C304.2,239.3,311.4,246.5,311.4,255.3z"/>
	<path fill="#FFFFFF" d="M331.4,283.6v15.5h-11.2v-43.7c0-8.9,7.2-16.1,16.1-16.1c8.9,0,16.2,7.2,16.2,16.1v43.7H341v-15.5H331.4z
		 M331.4,255.3v17.1h9.6v-17.1c0-2.6-2.1-4.8-4.8-4.8C333.6,250.5,331.4,252.7,331.4,255.3z"/>
	<path fill="#FFFFFF" d="M361.1,240.6h16.5l5.2,27.6l0.6,10.2h0.2h0.2l0.6-10.2l5.2-27.6h16.5v58.5h-11.2v-31.5l0.5-8.6H395
		l-6.8,40.1h-4.6H379l-6.8-40.1h-0.3l0.5,8.6v31.5h-11.2V240.6z"/>
	<path fill="#FFFFFF" d="M430.9,240.6c8.9,0,16.2,7.2,16.2,16.1v10.9c0,8.9-7.3,16.1-16.2,16.1H426v15.5h-11.2v-58.5H430.9z
		 M426,251.8v20.5h4.8c2.7,0,4.8-2.2,4.8-4.8v-10.9c0-2.6-2.1-4.8-4.8-4.8H426z"/>
</g>
<g>
</g>
<g>
</g>
<g>
</g>
<g>
</g>
<g>
</g>
<g>
</g>
</svg>
